<svg width="25" height="25" viewBox="0 0 25 25" fill="none" xmlns="http://www.w3.org/2000/svg">
<path d="M5.12128 10.1011C5.12082 9.8651 5.20219 9.63638 5.35128 9.45465C5.43522 9.35237 5.53833 9.26782 5.65467 9.20585C5.77102 9.14388 5.89833 9.1057 6.0293 9.0935C6.16028 9.0813 6.29235 9.09532 6.41796 9.13476C6.54356 9.1742 6.66023 9.23828 6.76128 9.32333L12.1213 13.8486L17.4913 9.48495C17.5936 9.40105 17.7113 9.33839 17.8376 9.30058C17.9639 9.26277 18.0964 9.25055 18.2275 9.26463C18.3585 9.27871 18.4855 9.31881 18.6011 9.38262C18.7167 9.44643 18.8188 9.5327 18.9013 9.63647C18.9923 9.74098 19.061 9.86337 19.103 9.99595C19.145 10.1285 19.1594 10.2685 19.1453 10.4069C19.1312 10.5454 19.0889 10.6795 19.0211 10.8007C18.9533 10.9219 18.8614 11.0276 18.7513 11.1112L12.7513 15.99C12.5723 16.1386 12.3479 16.2198 12.1163 16.2198C11.8847 16.2198 11.6602 16.1386 11.4813 15.99L5.48128 10.9395C5.36026 10.8382 5.2646 10.7094 5.20205 10.5638C5.1395 10.4181 5.11182 10.2596 5.12128 10.1011Z" fill="#A1A0A4"/>
</svg>
