<svg width="117" height="45" viewBox="0 0 117 45" fill="none" xmlns="http://www.w3.org/2000/svg">
<path d="M1.88391 40V26H4.02391L10.1439 36.22H9.02391L15.0439 26H17.1839L17.2039 40H14.7439L14.7239 29.86H15.2439L10.1239 38.4H8.96391L3.76391 29.86H4.36391V40H1.88391ZM25.7655 40.14C24.5788 40.14 23.5388 39.9067 22.6455 39.44C21.7655 38.96 21.0788 38.3067 20.5855 37.48C20.1055 36.6533 19.8655 35.7133 19.8655 34.66C19.8655 33.5933 20.0988 32.6533 20.5655 31.84C21.0455 31.0133 21.6988 30.3667 22.5255 29.9C23.3655 29.4333 24.3188 29.2 25.3855 29.2C26.4255 29.2 27.3521 29.4267 28.1655 29.88C28.9788 30.3333 29.6188 30.9733 30.0855 31.8C30.5521 32.6267 30.7855 33.6 30.7855 34.72C30.7855 34.8267 30.7788 34.9467 30.7655 35.08C30.7655 35.2133 30.7588 35.34 30.7455 35.46H21.8455V33.8H29.4255L28.4455 34.32C28.4588 33.7067 28.3321 33.1667 28.0655 32.7C27.7988 32.2333 27.4321 31.8667 26.9655 31.6C26.5121 31.3333 25.9855 31.2 25.3855 31.2C24.7721 31.2 24.2321 31.3333 23.7655 31.6C23.3121 31.8667 22.9521 32.24 22.6855 32.72C22.4321 33.1867 22.3055 33.74 22.3055 34.38V34.78C22.3055 35.42 22.4521 35.9867 22.7455 36.48C23.0388 36.9733 23.4521 37.3533 23.9855 37.62C24.5188 37.8867 25.1321 38.02 25.8255 38.02C26.4255 38.02 26.9655 37.9267 27.4455 37.74C27.9255 37.5533 28.3521 37.26 28.7255 36.86L30.0655 38.4C29.5855 38.96 28.9788 39.3933 28.2455 39.7C27.5255 39.9933 26.6988 40.14 25.7655 40.14ZM37.7069 40.14C36.6802 40.14 35.7535 39.9133 34.9269 39.46C34.1135 38.9933 33.4735 38.3533 33.0069 37.54C32.5402 36.7267 32.3069 35.7667 32.3069 34.66C32.3069 33.5533 32.5402 32.5933 33.0069 31.78C33.4735 30.9667 34.1135 30.3333 34.9269 29.88C35.7535 29.4267 36.6802 29.2 37.7069 29.2C38.6002 29.2 39.4002 29.4 40.1069 29.8C40.8135 30.1867 41.3735 30.78 41.7869 31.58C42.2002 32.38 42.4069 33.4067 42.4069 34.66C42.4069 35.9 42.2069 36.9267 41.8069 37.74C41.4069 38.54 40.8535 39.14 40.1469 39.54C39.4402 39.94 38.6269 40.14 37.7069 40.14ZM38.0069 38C38.6069 38 39.1402 37.8667 39.6069 37.6C40.0869 37.3333 40.4669 36.9467 40.7469 36.44C41.0402 35.9333 41.1869 35.34 41.1869 34.66C41.1869 33.9667 41.0402 33.3733 40.7469 32.88C40.4669 32.3733 40.0869 31.9867 39.6069 31.72C39.1402 31.4533 38.6069 31.32 38.0069 31.32C37.4069 31.32 36.8669 31.4533 36.3869 31.72C35.9202 31.9867 35.5402 32.3733 35.2469 32.88C34.9669 33.3733 34.8269 33.9667 34.8269 34.66C34.8269 35.34 34.9669 35.9333 35.2469 36.44C35.5402 36.9467 35.9202 37.3333 36.3869 37.6C36.8669 37.8667 37.4069 38 38.0069 38ZM41.2469 40V37.48L41.3469 34.64L41.1469 31.8V25.16H43.6269V40H41.2469ZM53.6973 40.2C52.604 40.2 51.5973 40.0267 50.6773 39.68C49.7707 39.32 48.9773 38.82 48.2973 38.18C47.6173 37.5267 47.0907 36.76 46.7173 35.88C46.344 35 46.1573 34.04 46.1573 33C46.1573 31.96 46.344 31 46.7173 30.12C47.0907 29.24 47.6173 28.48 48.2973 27.84C48.9907 27.1867 49.7973 26.6867 50.7173 26.34C51.6373 25.98 52.644 25.8 53.7373 25.8C54.924 25.8 55.9907 25.9933 56.9373 26.38C57.8973 26.7667 58.704 27.3333 59.3573 28.08L57.7173 29.68C57.1707 29.1333 56.5773 28.7333 55.9373 28.48C55.3107 28.2133 54.6173 28.08 53.8573 28.08C53.124 28.08 52.444 28.2 51.8173 28.44C51.1907 28.68 50.6507 29.02 50.1973 29.46C49.744 29.9 49.3907 30.42 49.1373 31.02C48.8973 31.62 48.7773 32.28 48.7773 33C48.7773 33.7067 48.8973 34.36 49.1373 34.96C49.3907 35.56 49.744 36.0867 50.1973 36.54C50.6507 36.98 51.184 37.32 51.7973 37.56C52.4107 37.8 53.0907 37.92 53.8373 37.92C54.5307 37.92 55.1973 37.8133 55.8373 37.6C56.4907 37.3733 57.1107 37 57.6973 36.48L59.1773 38.42C58.444 39.0067 57.5907 39.4533 56.6173 39.76C55.6573 40.0533 54.684 40.2 53.6973 40.2ZM56.7173 38.08V32.84H59.1773V38.42L56.7173 38.08ZM67.3866 40.14C66.1999 40.14 65.1599 39.9067 64.2666 39.44C63.3866 38.96 62.6999 38.3067 62.2066 37.48C61.7266 36.6533 61.4866 35.7133 61.4866 34.66C61.4866 33.5933 61.7199 32.6533 62.1866 31.84C62.6666 31.0133 63.3199 30.3667 64.1466 29.9C64.9866 29.4333 65.9399 29.2 67.0066 29.2C68.0466 29.2 68.9732 29.4267 69.7866 29.88C70.5999 30.3333 71.2399 30.9733 71.7066 31.8C72.1732 32.6267 72.4066 33.6 72.4066 34.72C72.4066 34.8267 72.3999 34.9467 72.3866 35.08C72.3866 35.2133 72.3799 35.34 72.3666 35.46H63.4666V33.8H71.0466L70.0666 34.32C70.0799 33.7067 69.9532 33.1667 69.6866 32.7C69.4199 32.2333 69.0532 31.8667 68.5866 31.6C68.1332 31.3333 67.6066 31.2 67.0066 31.2C66.3932 31.2 65.8532 31.3333 65.3866 31.6C64.9332 31.8667 64.5732 32.24 64.3066 32.72C64.0532 33.1867 63.9266 33.74 63.9266 34.38V34.78C63.9266 35.42 64.0732 35.9867 64.3666 36.48C64.6599 36.9733 65.0732 37.3533 65.6066 37.62C66.1399 37.8867 66.7532 38.02 67.4466 38.02C68.0466 38.02 68.5866 37.9267 69.0666 37.74C69.5466 37.5533 69.9732 37.26 70.3466 36.86L71.6866 38.4C71.2066 38.96 70.5999 39.3933 69.8666 39.7C69.1466 39.9933 68.3199 40.14 67.3866 40.14ZM78.108 40.14C77.2146 40.14 76.3546 40.0267 75.528 39.8C74.7146 39.56 74.068 39.2733 73.588 38.94L74.548 37.04C75.028 37.3467 75.6013 37.6 76.268 37.8C76.9346 38 77.6013 38.1 78.268 38.1C79.0546 38.1 79.6213 37.9933 79.968 37.78C80.328 37.5667 80.508 37.28 80.508 36.92C80.508 36.6267 80.388 36.4067 80.148 36.26C79.908 36.1 79.5946 35.98 79.208 35.9C78.8213 35.82 78.388 35.7467 77.908 35.68C77.4413 35.6133 76.968 35.5267 76.488 35.42C76.0213 35.3 75.5946 35.1333 75.208 34.92C74.8213 34.6933 74.508 34.3933 74.268 34.02C74.028 33.6467 73.908 33.1533 73.908 32.54C73.908 31.86 74.1013 31.2733 74.488 30.78C74.8746 30.2733 75.4146 29.8867 76.108 29.62C76.8146 29.34 77.648 29.2 78.608 29.2C79.328 29.2 80.0546 29.28 80.788 29.44C81.5213 29.6 82.128 29.8267 82.608 30.12L81.648 32.02C81.1413 31.7133 80.628 31.5067 80.108 31.4C79.6013 31.28 79.0946 31.22 78.588 31.22C77.828 31.22 77.2613 31.3333 76.888 31.56C76.528 31.7867 76.348 32.0733 76.348 32.42C76.348 32.74 76.468 32.98 76.708 33.14C76.948 33.3 77.2613 33.4267 77.648 33.52C78.0346 33.6133 78.4613 33.6933 78.928 33.76C79.408 33.8133 79.8813 33.9 80.348 34.02C80.8146 34.14 81.2413 34.3067 81.628 34.52C82.028 34.72 82.348 35.0067 82.588 35.38C82.828 35.7533 82.948 36.24 82.948 36.84C82.948 37.5067 82.748 38.0867 82.348 38.58C81.9613 39.0733 81.408 39.46 80.688 39.74C79.968 40.0067 79.108 40.14 78.108 40.14ZM89.1209 40.14C87.9476 40.14 87.0409 39.84 86.4009 39.24C85.7609 38.6267 85.4409 37.7267 85.4409 36.54V26.96H87.9409V36.48C87.9409 36.9867 88.0676 37.38 88.3209 37.66C88.5876 37.94 88.9543 38.08 89.4209 38.08C89.9809 38.08 90.4476 37.9333 90.8209 37.64L91.5209 39.42C91.2276 39.66 90.8676 39.84 90.4409 39.96C90.0143 40.08 89.5743 40.14 89.1209 40.14ZM83.6809 31.4V29.4H90.8009V31.4H83.6809ZM100.158 40V37.84L100.018 37.38V33.6C100.018 32.8667 99.7975 32.3 99.3575 31.9C98.9175 31.4867 98.2508 31.28 97.3575 31.28C96.7575 31.28 96.1642 31.3733 95.5775 31.56C95.0042 31.7467 94.5175 32.0067 94.1175 32.34L93.1375 30.52C93.7108 30.08 94.3908 29.7533 95.1775 29.54C95.9775 29.3133 96.8042 29.2 97.6575 29.2C99.2042 29.2 100.398 29.5733 101.238 30.32C102.091 31.0533 102.518 32.1933 102.518 33.74V40H100.158ZM96.7975 40.14C95.9975 40.14 95.2975 40.0067 94.6975 39.74C94.0975 39.46 93.6308 39.08 93.2975 38.6C92.9775 38.1067 92.8175 37.5533 92.8175 36.94C92.8175 36.34 92.9575 35.8 93.2375 35.32C93.5308 34.84 94.0042 34.46 94.6575 34.18C95.3108 33.9 96.1775 33.76 97.2575 33.76H100.358V35.42H97.4375C96.5842 35.42 96.0108 35.56 95.7175 35.84C95.4242 36.1067 95.2775 36.44 95.2775 36.84C95.2775 37.2933 95.4575 37.6533 95.8175 37.92C96.1775 38.1867 96.6775 38.32 97.3175 38.32C97.9308 38.32 98.4775 38.18 98.9575 37.9C99.4508 37.62 99.8042 37.2067 100.018 36.66L100.438 38.16C100.198 38.7867 99.7642 39.2733 99.1375 39.62C98.5242 39.9667 97.7442 40.14 96.7975 40.14ZM99.3175 27.86C98.9975 27.86 98.7042 27.8 98.4375 27.68C98.1842 27.5467 97.9508 27.3933 97.7375 27.22C97.5375 27.0333 97.3442 26.8733 97.1575 26.74C96.9708 26.6067 96.7842 26.54 96.5975 26.54C96.3175 26.54 96.0908 26.6467 95.9175 26.86C95.7442 27.0733 95.6442 27.3667 95.6175 27.74H94.2775C94.3042 26.9133 94.5042 26.26 94.8775 25.78C95.2642 25.3 95.7842 25.06 96.4375 25.06C96.7575 25.06 97.0508 25.1267 97.3175 25.26C97.5842 25.3933 97.8175 25.5467 98.0175 25.72C98.2308 25.8933 98.4308 26.0467 98.6175 26.18C98.8042 26.3133 98.9842 26.38 99.1575 26.38C99.4375 26.38 99.6642 26.28 99.8375 26.08C100.024 25.88 100.124 25.6 100.138 25.24H101.478C101.464 26.0133 101.264 26.6467 100.878 27.14C100.491 27.62 99.9708 27.86 99.3175 27.86ZM110.545 40.14C109.452 40.14 108.479 39.9067 107.625 39.44C106.772 38.96 106.099 38.3067 105.605 37.48C105.112 36.6533 104.865 35.7133 104.865 34.66C104.865 33.5933 105.112 32.6533 105.605 31.84C106.099 31.0133 106.772 30.3667 107.625 29.9C108.479 29.4333 109.452 29.2 110.545 29.2C111.652 29.2 112.632 29.4333 113.485 29.9C114.352 30.3667 115.025 31.0067 115.505 31.82C115.999 32.6333 116.245 33.58 116.245 34.66C116.245 35.7133 115.999 36.6533 115.505 37.48C115.025 38.3067 114.352 38.96 113.485 39.44C112.632 39.9067 111.652 40.14 110.545 40.14ZM110.545 38C111.159 38 111.705 37.8667 112.185 37.6C112.665 37.3333 113.039 36.9467 113.305 36.44C113.585 35.9333 113.725 35.34 113.725 34.66C113.725 33.9667 113.585 33.3733 113.305 32.88C113.039 32.3733 112.665 31.9867 112.185 31.72C111.705 31.4533 111.165 31.32 110.565 31.32C109.952 31.32 109.405 31.4533 108.925 31.72C108.459 31.9867 108.085 32.3733 107.805 32.88C107.525 33.3733 107.385 33.9667 107.385 34.66C107.385 35.34 107.525 35.9333 107.805 36.44C108.085 36.9467 108.459 37.3333 108.925 37.6C109.405 37.8667 109.945 38 110.545 38Z" fill="url(#paint0_linear_25_7108)"/>
<path d="M58.5017 20.0333C59.8249 19.5517 59.953 16.5661 58.7878 13.3648C57.6226 10.1634 55.6054 7.95865 54.2822 8.44025C52.959 8.92184 52.8309 11.9075 53.9961 15.1088C55.1613 18.3101 57.1785 20.5149 58.5017 20.0333Z" stroke="url(#paint1_linear_25_7108)" stroke-linecap="round" stroke-linejoin="round"/>
<path d="M58.503 20.0313C59.098 18.7552 57.0775 16.5535 53.9899 15.1137C50.9023 13.6739 47.9169 13.5413 47.3218 14.8175C46.7267 16.0936 48.7473 18.2953 51.8349 19.7351C54.9225 21.1749 57.9079 21.3075 58.503 20.0313Z" stroke="url(#paint2_linear_25_7108)" stroke-linecap="round" stroke-linejoin="round"/>
<path d="M63.0052 15.1098C64.1704 11.9085 64.0423 8.92289 62.7191 8.4413C61.3959 7.9597 59.3787 10.1645 58.2135 13.3658C57.0483 16.5672 57.1764 19.5528 58.4996 20.0344C59.8228 20.516 61.84 18.3112 63.0052 15.1098Z" stroke="url(#paint3_linear_25_7108)" stroke-linecap="round" stroke-linejoin="round"/>
<path d="M65.1678 19.7323C68.2554 18.2925 70.276 16.0908 69.6809 14.8146C69.0858 13.5384 66.1004 13.6711 63.0128 15.1108C59.9252 16.5506 57.9047 18.7523 58.4997 20.0285C59.0948 21.3046 62.0802 21.172 65.1678 19.7323Z" stroke="url(#paint4_linear_25_7108)" stroke-linecap="round" stroke-linejoin="round"/>
<defs>
<linearGradient id="paint0_linear_25_7108" x1="9.97109e-08" y1="33.1101" x2="117" y2="33.1101" gradientUnits="userSpaceOnUse">
<stop stop-color="#30FCCB"/>
<stop offset="1" stop-color="#1BC89E"/>
</linearGradient>
<linearGradient id="paint1_linear_25_7108" x1="54.0155" y1="15.162" x2="58.8071" y2="13.418" gradientUnits="userSpaceOnUse">
<stop stop-color="#30FCCB"/>
<stop offset="1" stop-color="#1BC89E"/>
</linearGradient>
<linearGradient id="paint2_linear_25_7108" x1="51.8861" y1="19.759" x2="54.0412" y2="15.1376" gradientUnits="userSpaceOnUse">
<stop stop-color="#30FCCB"/>
<stop offset="1" stop-color="#1BC89E"/>
</linearGradient>
<linearGradient id="paint3_linear_25_7108" x1="58.5216" y1="20.0424" x2="62.7411" y2="8.4493" gradientUnits="userSpaceOnUse">
<stop stop-color="#30FCCB"/>
<stop offset="1" stop-color="#1BC89E"/>
</linearGradient>
<linearGradient id="paint4_linear_25_7108" x1="58.5096" y1="20.0497" x2="69.6908" y2="14.8358" gradientUnits="userSpaceOnUse">
<stop stop-color="#30FCCB"/>
<stop offset="1" stop-color="#1BC89E"/>
</linearGradient>
</defs>
</svg>
