<svg width="25" height="24" viewBox="0 0 25 24" fill="none" xmlns="http://www.w3.org/2000/svg">
<path d="M10.101 18.9999C9.86498 19.0004 9.63625 18.919 9.45453 18.7699C9.35224 18.686 9.2677 18.5829 9.20573 18.4665C9.14375 18.3502 9.10558 18.2229 9.09338 18.0919C9.08118 17.9609 9.0952 17.8289 9.13464 17.7033C9.17408 17.5777 9.23816 17.461 9.32321 17.3599L13.8485 11.9999L9.48483 6.62994C9.40092 6.52765 9.33827 6.40996 9.30046 6.28362C9.26265 6.15728 9.25043 6.02479 9.26451 5.89376C9.27859 5.76273 9.31869 5.63575 9.3825 5.52011C9.44631 5.40447 9.53258 5.30246 9.63634 5.21994C9.74085 5.1289 9.86324 5.06024 9.99583 5.01825C10.1284 4.97626 10.2683 4.96185 10.4068 4.97594C10.5453 4.99002 10.6793 5.03229 10.8005 5.1001C10.9217 5.1679 11.0275 5.25977 11.1111 5.36994L15.9899 11.3699C16.1384 11.5489 16.2197 11.7733 16.2197 12.0049C16.2197 12.2366 16.1384 12.461 15.9899 12.6399L10.9394 18.6399C10.838 18.761 10.7093 18.8566 10.5637 18.9192C10.418 18.9817 10.2595 19.0094 10.101 18.9999Z" fill="#A1A0A4"/>
</svg>
